<svg xmlns="http://www.w3.org/2000/svg" width="40" height="40.001" viewBox="0 0 40 40.001">
  <g id="phone" transform="translate(-0.003 0)">
    <g id="Group_3" data-name="Group 3" transform="translate(0.003 0)">
      <path id="Path_1" data-name="Path 1" d="M39.664,32.923,30.3,23.556a1.164,1.164,0,0,0-1.644,0l-1.629,1.629a1.156,1.156,0,0,0-.3,1.116l-1.75,1.75a1.328,1.328,0,0,1-1.435.3A21.382,21.382,0,0,1,11.656,16.467a1.328,1.328,0,0,1,.3-1.435l1.75-1.75a1.167,1.167,0,0,0,.294.039,1.154,1.154,0,0,0,.822-.34l1.629-1.629a1.164,1.164,0,0,0,0-1.643L10.991,4.251a.586.586,0,0,0-.829.829l5.45,5.45L14,12.145,4.644,2.791,6.259,1.176,8.23,3.146a.586.586,0,1,0,.829-.829L7.081.34a1.162,1.162,0,0,0-1.644,0L3.808,1.969a1.162,1.162,0,0,0-.3,1.116L1.886,4.706A6.357,6.357,0,0,0,.04,8.781,20.7,20.7,0,0,0,2.919,20.152a43.346,43.346,0,0,0,7.406,9.527,48.294,48.294,0,0,0,6.65,5.621.586.586,0,1,0,.665-.965,47.134,47.134,0,0,1-6.486-5.484C4.136,21.833.791,15.107,1.209,8.859A5.186,5.186,0,0,1,2.715,5.535L4.223,4.027l8.539,8.539L11.124,14.2a2.5,2.5,0,0,0-.556,2.7A22.553,22.553,0,0,0,23.1,29.436a2.5,2.5,0,0,0,2.7-.556l1.637-1.637,2.1,2.1a.586.586,0,0,0,.829-.829l-2.5-2.5,1.615-1.615,9.354,9.354L37.213,35.36,32.3,30.443a.586.586,0,1,0-.829.829l4.51,4.51-1.508,1.508a5.185,5.185,0,0,1-3.324,1.505,19.885,19.885,0,0,1-11.236-3.022.586.586,0,1,0-.585,1.015A21.688,21.688,0,0,0,30.121,40q.554,0,1.1-.037A6.357,6.357,0,0,0,35.3,38.118L36.919,36.5a1.157,1.157,0,0,0,1.116-.3l1.629-1.629a1.164,1.164,0,0,0,0-1.643Z" transform="translate(-0.003 0)" fill="#fff"/>
      <path id="Path_2" data-name="Path 2" d="M372.022,181.915a.529.529,0,1,0,.529.529A.529.529,0,0,0,372.022,181.915Z" transform="translate(-342.474 -167.705)" fill="#fff"/>
      <path id="Path_3" data-name="Path 3" d="M342.987,76.137a.589.589,0,0,0,.589-.589,1.635,1.635,0,0,1,1.7-1.636,1.6,1.6,0,0,1,1.566,1.553,1.637,1.637,0,0,1-1.633,1.712.589.589,0,0,0-.589.589V80.1a.589.589,0,1,0,1.178,0V78.294a2.836,2.836,0,0,0,2.222-2.829,2.768,2.768,0,0,0-2.72-2.731,2.813,2.813,0,0,0-2.906,2.814A.589.589,0,0,0,342.987,76.137Z" transform="translate(-315.671 -67.021)" fill="#fff"/>
      <path id="Path_4" data-name="Path 4" d="M279.846,50.041a.589.589,0,0,0,.745.745l3.062-1.021a7.728,7.728,0,1,0-2.786-2.786Zm7.7-13.507a6.552,6.552,0,1,1-3.5,12.089.589.589,0,0,0-.5-.061l-2.2.734.734-2.2a.589.589,0,0,0-.061-.5,6.553,6.553,0,0,1,5.537-10.056Z" transform="translate(-258.053 -32.579)" fill="#fff"/>
    </g>
  </g>
</svg>
