<svg xmlns="http://www.w3.org/2000/svg" width="25.977" height="35" viewBox="0 0 25.977 35">
  <g id="location" transform="translate(-66)">
    <circle id="Ellipse_5" data-name="Ellipse 5" cx="0.5" cy="0.5" r="0.5" transform="translate(78.947 12.948)" fill="#fff"/>
    <path id="Path_62" data-name="Path 62" d="M143.727,109.726h10.228a.684.684,0,0,0,.682-.686v-6.449l.92.794a.679.679,0,0,0,.961-.075.689.689,0,0,0-.074-.968l-7.159-6.176a.679.679,0,0,0-.888,0l-7.159,6.176a.689.689,0,0,0-.074.968.679.679,0,0,0,.961.075l.92-.794v6.449A.684.684,0,0,0,143.727,109.726Zm.682-8.312,4.432-3.824,4.432,3.824v6.939h-3.75v-2.745a.682.682,0,1,0-1.364,0v2.745h-3.75Z" transform="translate(-69.853 -89.454)" fill="#fff"/>
    <path id="Path_63" data-name="Path 63" d="M78.5,34.792a.684.684,0,0,0,.982,0c4.363-4.5,12.5-14.635,12.5-21.393A13.519,13.519,0,0,0,90.1,6.56a.684.684,0,1,0-1.179.693A12.151,12.151,0,0,1,90.609,13.4c0,6.916-9.351,17.461-11.621,19.919-2.27-2.458-11.621-13-11.621-19.919,0-6.522,5.322-12.031,11.621-12.031A11.118,11.118,0,0,1,84.91,3.1a.684.684,0,1,0,.728-1.157A12.483,12.483,0,0,0,78.988,0C71.7,0,66,6.341,66,13.4,66,20.15,74.121,30.274,78.5,34.792Z" transform="translate(0 0)" fill="#fff"/>
    <circle id="Ellipse_6" data-name="Ellipse 6" cx="0.5" cy="0.5" r="0.5" transform="translate(86.898 4)" fill="#fff"/>
  </g>
</svg>
