<svg xmlns="http://www.w3.org/2000/svg" width="35.001" height="35" viewBox="0 0 35.001 35">
  <g id="mail" transform="translate(-0.001 -0.004)">
    <g id="Group_77" data-name="Group 77" transform="translate(0.001 0.004)">
      <g id="Group_76" data-name="Group 76" transform="translate(0 0)">
        <path id="Path_56" data-name="Path 56" d="M34.995,13.385a.552.552,0,0,0-.024-.118.583.583,0,0,0-.033-.1.523.523,0,0,0-.058-.089.55.55,0,0,0-.078-.09c-.009-.008-.013-.019-.023-.027L29.168,8.6V4.086a1.75,1.75,0,0,0-1.75-1.75H21.1L18.564.37a1.73,1.73,0,0,0-2.128,0L13.905,2.336H7.583a1.75,1.75,0,0,0-1.75,1.75V8.6L.224,12.959c-.01.008-.014.019-.023.027a.547.547,0,0,0-.078.09.521.521,0,0,0-.058.089.576.576,0,0,0-.033.1.553.553,0,0,0-.024.117c0,.012-.007.023-.007.035V33.254a1.73,1.73,0,0,0,.342,1.03c0,.005,0,.012.008.016s.013.01.019.016A1.742,1.742,0,0,0,1.749,35h31.5a1.742,1.742,0,0,0,1.384-.691c0-.006.012-.008.016-.013s0-.011.008-.016A1.731,1.731,0,0,0,35,33.254V13.42C35,13.407,35,13.4,34.995,13.385ZM17.15,1.291a.559.559,0,0,1,.7,0l1.346,1.045H15.809ZM1.9,33.838,17.15,21.989a.56.56,0,0,1,.7,0L33.1,33.838Zm31.938-.91-15.27-11.86a1.731,1.731,0,0,0-2.128,0L1.166,32.928V14.308l9.56,7.423a.584.584,0,0,0,.715-.922L1.729,13.268l4.1-3.189v4.508a.583.583,0,1,0,1.167,0V4.086A.583.583,0,0,1,7.583,3.5H27.418A.583.583,0,0,1,28,4.086v10.5a.583.583,0,1,0,1.167,0V10.079l4.1,3.189-9.729,7.555a.583.583,0,1,0,.715.922l9.577-7.436v18.62Z" transform="translate(-0.001 -0.004)" fill="#fff"/>
        <path id="Path_57" data-name="Path 57" d="M166.943,77.15V74.922a6.685,6.685,0,1,0-6.685,6.685.557.557,0,0,0,0-1.114,5.571,5.571,0,1,1,5.571-5.571V77.15a1.114,1.114,0,0,1-2.228,0V74.922a.557.557,0,1,0-1.114,0,2.228,2.228,0,1,1-2.228-2.228.557.557,0,0,0,0-1.114,3.342,3.342,0,1,0,2.252,5.805,2.222,2.222,0,0,0,4.433-.235Z" transform="translate(-142.759 -63.783)" fill="#fff"/>
      </g>
    </g>
  </g>
</svg>
