<svg xmlns="http://www.w3.org/2000/svg" width="37" height="37" viewBox="0 0 37 37">
  <g id="mail" transform="translate(-0.001 -0.004)">
    <g id="Group_66" data-name="Group 66" transform="translate(0.001 0.004)">
      <g id="Group_65" data-name="Group 65" transform="translate(0 0)">
        <path id="Path_53" data-name="Path 53" d="M36.994,14.149a.583.583,0,0,0-.025-.125.616.616,0,0,0-.035-.106.553.553,0,0,0-.062-.094.581.581,0,0,0-.082-.1c-.01-.009-.014-.02-.025-.029L30.834,9.093V4.319a1.85,1.85,0,0,0-1.85-1.85H22.3L19.625.391a1.829,1.829,0,0,0-2.249,0L14.7,2.469H8.016a1.85,1.85,0,0,0-1.85,1.85V9.093L.237,13.7c-.01.009-.015.02-.025.029a.579.579,0,0,0-.082.1.55.55,0,0,0-.062.094.608.608,0,0,0-.035.106.584.584,0,0,0-.025.123c0,.013-.007.024-.007.037V35.154a1.829,1.829,0,0,0,.362,1.088c0,.006,0,.012.009.017s.014.01.02.017A1.841,1.841,0,0,0,1.849,37h33.3a1.842,1.842,0,0,0,1.463-.73c0-.006.012-.008.017-.014s0-.012.009-.017A1.83,1.83,0,0,0,37,35.154V14.186C37,14.173,36.994,14.162,36.994,14.149ZM18.13,1.364a.591.591,0,0,1,.736,0l1.423,1.1H16.712ZM2,35.771,18.13,23.245a.592.592,0,0,1,.736,0L35,35.771Zm33.763-.961L19.625,22.272a1.83,1.83,0,0,0-2.249,0L1.232,34.809V15.125l10.106,7.848A.617.617,0,0,0,12.094,22L1.828,14.026l4.338-3.372v4.765a.617.617,0,1,0,1.233,0V4.319A.617.617,0,0,1,8.016,3.7H28.984a.617.617,0,0,1,.617.617v11.1a.617.617,0,1,0,1.233,0V10.654l4.338,3.372L24.888,22.012a.617.617,0,1,0,.756.974l10.124-7.861V34.809Z" transform="translate(-0.001 -0.004)" fill="#fe6500"/>
        <path id="Path_54" data-name="Path 54" d="M168.375,78.1V75.637a7.4,7.4,0,1,0-7.4,7.4.617.617,0,0,0,0-1.233,6.167,6.167,0,1,1,6.167-6.167V78.1a1.233,1.233,0,0,1-2.467,0V75.637a.617.617,0,1,0-1.233,0,2.467,2.467,0,1,1-2.467-2.467.617.617,0,0,0,0-1.233,3.7,3.7,0,1,0,2.493,6.427,2.46,2.46,0,0,0,4.907-.26Z" transform="translate(-142.475 -63.306)" fill="#fe6500"/>
      </g>
    </g>
  </g>
</svg>
