<svg xmlns="http://www.w3.org/2000/svg" width="91.454" height="80" viewBox="0 0 91.454 80">
  <g id="man" transform="translate(0 -32.063)">
    <g id="Group_42" data-name="Group 42" transform="translate(49.921 90.941)">
      <g id="Group_41" data-name="Group 41">
        <path id="Path_10" data-name="Path 10" d="M285.832,361.686h-5.013a1.34,1.34,0,0,0,0,2.679h5.013a1.34,1.34,0,0,0,0-2.679Z" transform="translate(-279.479 -361.686)" fill="#fe6500"/>
      </g>
    </g>
    <g id="Group_44" data-name="Group 44" transform="translate(39.427 32.064)">
      <g id="Group_43" data-name="Group 43" transform="translate(0 0)">
        <path id="Path_11" data-name="Path 11" d="M267.085,76.6l-7.3-2.814-3.719-3.719a1.334,1.334,0,0,0-.861-.388V66.72a13.816,13.816,0,0,0,3.5-6.9,3.833,3.833,0,0,0,.94-.075,3.965,3.965,0,0,0,3.076-3.932v-.977a4.015,4.015,0,0,0-1.18-2.849c1.183-6.434.209-11.677-2.83-15.187-2.94-3.394-7.676-5.017-13.7-4.691a17.943,17.943,0,0,0-10.289,3.8,7.058,7.058,0,0,0-2.757.937c-1.488.893-3.261,2.768-3.261,6.632a33.454,33.454,0,0,0,.929,7.782,3.971,3.971,0,0,0-2.182,3.6v.962a3.965,3.965,0,0,0,3.076,3.932,3.825,3.825,0,0,0,.94.075,13.817,13.817,0,0,0,3.5,6.9v2.96a1.333,1.333,0,0,0-.861.388L230.4,73.787l-7.3,2.814a8.87,8.87,0,0,0-1.792.938,1.34,1.34,0,1,0,1.506,2.216,6.2,6.2,0,0,1,1.25-.654l6.77-2.611,5.176,7.765a3.832,3.832,0,0,0,2.821,1.694c.128.013.256.019.383.019a3.824,3.824,0,0,0,1.885-.5L240,110.666a1.34,1.34,0,0,0,1.279,1.4h.06a1.34,1.34,0,0,0,1.337-1.281L243.706,87.4h2.781l1.031,23.389a1.34,1.34,0,0,0,1.337,1.281h.06a1.34,1.34,0,0,0,1.279-1.4l-1.111-25.2a3.823,3.823,0,0,0,1.885.5c.127,0,.255-.006.383-.019a3.833,3.833,0,0,0,2.821-1.694l5.176-7.765,6.77,2.611a6.166,6.166,0,0,1,2.41,1.679L263.9,85.412a8.8,8.8,0,0,0-2.6,6.265v19.048a1.34,1.34,0,1,0,2.679,0V91.677a6.14,6.14,0,0,1,1.81-4.37l4.065-4.065a6.174,6.174,0,0,1,.214,1.872l-1.038,25.557a1.34,1.34,0,0,0,1.284,1.393h.055a1.34,1.34,0,0,0,1.338-1.285l1.038-25.558A8.857,8.857,0,0,0,267.085,76.6ZM234.1,59.265a2.608,2.608,0,0,0-2.713-2.126,1.149,1.149,0,0,1-.312-.021,1.3,1.3,0,0,1-.934-1.307v-.962a1.27,1.27,0,0,1,.945-1.274,1.164,1.164,0,0,1,1.147.439,1.869,1.869,0,0,0,2.568.4,9.727,9.727,0,0,0,2.2-2.148,1.34,1.34,0,0,0-2.15-1.6,7.111,7.111,0,0,1-1.043,1.127,3.833,3.833,0,0,0-1.453-.776,30.811,30.811,0,0,1-.957-7.551c0-2.052.632-3.493,1.88-4.285a4.349,4.349,0,0,1,2-.642,1.352,1.352,0,0,0,.924-.37,15.091,15.091,0,0,1,8.966-3.392c5.163-.279,9.148,1.025,11.525,3.77,2.4,2.767,3.194,7.015,2.328,12.331a5.807,5.807,0,0,0-1.143.08l-1.259-3.023a1.341,1.341,0,0,0-1.576-.781c-.124.033-12.5,3.169-17.683-3.29a1.34,1.34,0,1,0-2.089,1.678c5.3,6.6,15.808,5.16,19.307,4.461l.973,2.337a2.2,2.2,0,0,0,2.544,1.3,2.892,2.892,0,0,1,1-.074,1.264,1.264,0,0,1,.95,1.257v.977a1.3,1.3,0,0,1-.934,1.307,1.136,1.136,0,0,1-.312.021,2.61,2.61,0,0,0-2.713,2.126,11.179,11.179,0,0,1-21.99,0Zm5.943,23.681a1.167,1.167,0,0,1-1.8-.178l-5.215-7.822,2.1-2.1,8.006,7.005Zm3.779,1.77.081-1.841,1.191-1.191,1.191,1.191.081,1.841Zm1.272-6.707-7.434-6.5V68.94a13.865,13.865,0,0,0,14.868,0V71.5Zm6.848,4.76a1.167,1.167,0,0,1-1.8.178l-3.092-3.092,8.006-7.005,2.1,2.1Z" transform="translate(-220.729 -32.066)" fill="#fe6500"/>
      </g>
    </g>
    <g id="Group_46" data-name="Group 46" transform="translate(0 32.063)">
      <g id="Group_45" data-name="Group 45" transform="translate(0 0)">
        <path id="Path_12" data-name="Path 12" d="M42.485,83.62l-6.542-2.855-3.576-3.576a1.332,1.332,0,0,0-.861-.388V74.693a13.837,13.837,0,0,0,6.011-9.008,3.849,3.849,0,0,0,1.057-.1,3.987,3.987,0,0,0,2.958-3.906V60.7a3.994,3.994,0,0,0-1.717-3.294A15.149,15.149,0,0,0,40.28,53.7,15.62,15.62,0,0,0,32.757,40.45,8.686,8.686,0,0,0,23.9,32.063a8.686,8.686,0,0,0-8.858,8.387A15.62,15.62,0,0,0,7.52,53.7a15.149,15.149,0,0,0,.46,3.7,4,4,0,0,0-1.714,3.32v.962a3.987,3.987,0,0,0,2.958,3.906,3.841,3.841,0,0,0,1.057.1,13.837,13.837,0,0,0,6.011,9.008V76.8a1.332,1.332,0,0,0-.861.388l-3.576,3.576L5.315,83.62a8.916,8.916,0,0,0-5.307,8.5L.8,110.78a1.34,1.34,0,0,0,1.338,1.283h.058a1.34,1.34,0,0,0,1.282-1.4L2.685,92a6.169,6.169,0,0,1,.849-3.374L7.05,92.847a7.448,7.448,0,0,1,1.723,4.759v13.117a1.34,1.34,0,1,0,2.679,0V97.606a10.132,10.132,0,0,0-2.344-6.474L5.371,86.646a6.074,6.074,0,0,1,1.017-.571l5.7-2.489,4.029,6.539a2.593,2.593,0,0,0,3.891.612l2.553-2.178v22.163a1.34,1.34,0,0,0,2.679,0V88.56l2.553,2.178a2.593,2.593,0,0,0,3.891-.612l4.029-6.539,5.7,2.489a6.08,6.08,0,0,1,1.017.571l-3.738,4.486a10.132,10.132,0,0,0-2.344,6.474v13.117a1.34,1.34,0,1,0,2.679,0V97.606a7.449,7.449,0,0,1,1.723-4.759l3.516-4.219A6.169,6.169,0,0,1,45.115,92l-.791,18.665a1.34,1.34,0,0,0,1.282,1.4h.058A1.34,1.34,0,0,0,47,110.78l.791-18.665A8.916,8.916,0,0,0,42.485,83.62ZM23.9,34.742a6.138,6.138,0,0,1,5.966,4.282,16.989,16.989,0,0,0-11.932,0A6.138,6.138,0,0,1,23.9,34.742Zm-11,30.39a2.609,2.609,0,0,0-2.713-2.126,1.157,1.157,0,0,1-.35-.03,1.308,1.308,0,0,1-.9-1.3v-.962a1.27,1.27,0,0,1,.945-1.274,1.164,1.164,0,0,1,1.146.439,1.868,1.868,0,0,0,2.568.4,9.718,9.718,0,0,0,2.168-2.11,1.34,1.34,0,0,0-2.143-1.609,7.1,7.1,0,0,1-1.022,1.1,3.838,3.838,0,0,0-2.022-.89A12.477,12.477,0,0,1,10.2,53.7c0-7.209,6.146-13.074,13.7-13.074S37.6,46.487,37.6,53.7a12.472,12.472,0,0,1-.386,3.073,6.145,6.145,0,0,0-1.043.172l-1.007-.828a2.572,2.572,0,0,0-1.788-.586c-1.969.116-12.054.383-17.228-5.81a1.34,1.34,0,1,0-2.056,1.718c2.552,3.054,6.294,5.119,11.124,6.138a32.79,32.79,0,0,0,8.273.631L35.061,59.5a1.337,1.337,0,0,0,1.523.124,2.956,2.956,0,0,1,1.32-.176,1.264,1.264,0,0,1,.95,1.257v.977a1.308,1.308,0,0,1-.9,1.3,1.145,1.145,0,0,1-.35.03A2.612,2.612,0,0,0,34.9,65.132a11.18,11.18,0,0,1-21.99,0Zm5.44,23.5-4.029-6.54L16.38,80.03l5.548,5.548ZM23.9,83.761l-4.927-4.927V76.063a13.85,13.85,0,0,0,9.854,0v2.771Zm5.555,4.874-3.582-3.057L31.42,80.03l2.064,2.064Z" transform="translate(0 -32.063)" fill="#fe6500"/>
      </g>
    </g>
    <g id="Group_48" data-name="Group 48" transform="translate(13.787 96.85)">
      <g id="Group_47" data-name="Group 47" transform="translate(0 0)">
        <path id="Path_13" data-name="Path 13" d="M82.284,394.766h-3.76a1.34,1.34,0,1,0,0,2.679h3.76a1.34,1.34,0,1,0,0-2.679Z" transform="translate(-77.184 -394.766)" fill="#fe6500"/>
      </g>
    </g>
  </g>
</svg>
