<svg xmlns="http://www.w3.org/2000/svg" width="74.708" height="80" viewBox="0 0 74.708 80">
  <g id="XMLID_1580_" transform="translate(-16.933)">
    <g id="XMLID_1078_" transform="translate(16.933 0)">
      <path id="XMLID_265_" d="M90.179,51.259,77.167,38.247V28.359a1.563,1.563,0,0,0-3.125,0v6.763l-3.137-3.137a8.238,8.238,0,0,0-8.281-9.367,10.216,10.216,0,0,1-6.811-2.592A1.562,1.562,0,0,0,53.2,21.182V23.45a8.673,8.673,0,0,0-9.855,1.695,5.541,5.541,0,0,1-7.827,0,8.67,8.67,0,0,0-10.225-1.507V9.375h48.75V14.3a1.562,1.562,0,1,0,3.125,0V7.812A1.563,1.563,0,0,0,75.605,6.25H61.568V1.562A1.563,1.563,0,0,0,60.006,0H39.329a1.563,1.563,0,0,0-1.562,1.562V6.25H23.73a1.563,1.563,0,0,0-1.562,1.562V43.75h-.1a5.316,5.316,0,0,0,0,10.625h6.617L22.344,78.033A1.563,1.563,0,0,0,23.854,80h7.78a1.562,1.562,0,0,0,1.509-1.158l3.139-11.714H63.053l3.139,11.714A1.562,1.562,0,0,0,67.7,80h7.78a1.563,1.563,0,0,0,1.509-1.967L70.651,54.375h6.617a5.129,5.129,0,0,0,1.621-.264l4.219,4.219a5,5,0,0,0,7.071-7.071ZM40.891,3.125H58.443V6.25H40.891ZM56.324,24.188a13.493,13.493,0,0,0,6.3,1.555,5.225,5.225,0,0,1,5.234,5.124,5.13,5.13,0,0,1-5.124,5.124,6.417,6.417,0,0,1-6.409-6.409V24.188ZM25.292,27.514a1.567,1.567,0,0,0,.189-.159,5.534,5.534,0,0,1,7.827,0,8.669,8.669,0,0,0,12.246,0,5.534,5.534,0,0,1,7.645-.173v2.4a9.545,9.545,0,0,0,9.534,9.534,8.266,8.266,0,0,0,1.087-.074l4.707,4.707H25.292Zm5.143,49.361H25.89l6.029-22.5h4.545ZM37.119,64l2.58-9.628H59.636L62.216,64ZM73.445,76.875H68.9l-6.029-22.5h4.545ZM22.067,51.25a2.2,2.2,0,0,1,0-4.375H71.653l4.375,4.375Zm65.9,4.87a1.877,1.877,0,0,1-2.652,0L67.075,37.877a8.311,8.311,0,0,0,2.655-2.648L87.969,53.468A1.877,1.877,0,0,1,87.969,56.12Z" transform="translate(-16.933 0)" fill="#fe6500"/>
      <path id="XMLID_1516_" d="M384,126.5a1.563,1.563,0,1,0,1.1.458A1.574,1.574,0,0,0,384,126.5Z" transform="translate(-325.324 -106.734)" fill="#fe6500"/>
    </g>
  </g>
</svg>
