<svg id="project" xmlns="http://www.w3.org/2000/svg" width="80" height="80" viewBox="0 0 80 80">
  <g id="Group_32" data-name="Group 32">
    <g id="Group_31" data-name="Group 31">
      <path id="Path_5" data-name="Path 5" d="M105.333,0h-60A1.333,1.333,0,0,0,44,1.333v20h2.667V2.667H104V76a1.312,1.312,0,0,1-1.228,1.333c-.115,0-.229-.009-.344-.012-.236-.007-.472-.012-.7-.036a.149.149,0,0,1-.059-.008,9.347,9.347,0,0,1-8.275-8.267.427.427,0,0,0-.009-.057A9.293,9.293,0,0,1,93.333,68V65.333A1.333,1.333,0,0,0,92,64H46.667V40H44V64H33.333A1.333,1.333,0,0,0,32,65.333V68A12.013,12.013,0,0,0,44,80h58.8a3.971,3.971,0,0,0,3.867-4V1.333A1.333,1.333,0,0,0,105.333,0ZM44,77.333A9.344,9.344,0,0,1,34.667,68V66.667h56V68a12.309,12.309,0,0,0,.076,1.316c.012.116.035.228.051.343.044.323.1.644.168.96.024.111.055.22.083.331.081.321.173.637.28.949.031.089.063.177.1.267.121.331.259.653.409.972.032.065.061.133.093.193a11.251,11.251,0,0,0,.551.985c.027.043.051.087.077.133a11.97,11.97,0,0,0,.7.987l.043.057a12.289,12.289,0,0,0,.933,1.044,11.757,11.757,0,0,0,.893.8Z" transform="translate(-26.667)" fill="#fe6500"/>
      <path id="Path_6" data-name="Path 6" d="M44,157.333a1.333,1.333,0,0,0,.943-.391l5.333-5.333a1.333,1.333,0,0,0,0-1.885l-5.333-5.333A1.333,1.333,0,0,0,44,144H6.667a6.667,6.667,0,0,0,0,13.333Zm-.344-10.459,3.792,3.792-3.792,3.792-.948-3.792Zm-32.989-.208H40.96l-.667,2.667H13.333V152h26.96l.667,2.667H10.667Zm-8,4a4,4,0,0,1,4-4H8v8H6.667A4,4,0,0,1,2.667,150.667Z" transform="translate(0 -120)" fill="#fe6500"/>
      <path id="Path_7" data-name="Path 7" d="M177.335,130.668h40a1.333,1.333,0,0,0,1.333-1.333v-40a1.333,1.333,0,0,0-2.276-.943l-40,40a1.333,1.333,0,0,0,.943,2.276ZM216,92.554V96h-2.667v2.667H216v2.667h-2.667V104H216v2.667h-2.667v2.667H216V112h-2.667v2.667H216v2.667h-2.667V120H216v2.667h-2.667v2.667H216V128h-2.667v-2.667h-2.667V128H208v-2.667h-2.667V128h-2.667v-2.667H200V128h-2.667v-2.667h-2.667V128H192v-2.667h-2.667V128h-2.667v-2.667H184V128h-3.448Z" transform="translate(-146.668 -73.335)" fill="#fe6500"/>
      <path id="Path_8" data-name="Path 8" d="M293.215,219.235H305.9a1.333,1.333,0,0,0,1.333-1.333V205.215a1.333,1.333,0,0,0-2.276-.943l-12.687,12.687a1.333,1.333,0,0,0,.943,2.276Zm11.353-10.8v8.133h-8.133Z" transform="translate(-243.235 -169.902)" fill="#fe6500"/>
      <rect id="Rectangle_10" data-name="Rectangle 10" width="26" height="3" transform="translate(35 8)" fill="#fe6500"/>
      <rect id="Rectangle_11" data-name="Rectangle 11" width="34" height="3" transform="translate(31 13)" fill="#fe6500"/>
      <rect id="Rectangle_12" data-name="Rectangle 12" width="8" height="3" transform="translate(23 41)" fill="#fe6500"/>
      <rect id="Rectangle_13" data-name="Rectangle 13" width="5" height="2" transform="translate(23 47)" fill="#fe6500"/>
    </g>
  </g>
</svg>
