<svg xmlns="http://www.w3.org/2000/svg" width="85.413" height="80" viewBox="0 0 85.413 80">
  <g id="user" transform="translate(0 -16.224)">
    <g id="Group_35" data-name="Group 35" transform="translate(0 16.224)">
      <path id="Path_9" data-name="Path 9" d="M84.162,83.9a1.251,1.251,0,0,0-1.251,1.251v8.36a.211.211,0,0,1-.211.211H77.946V75.442a1.251,1.251,0,0,0-2.5,0v18.28H66.257l2.486-2.735a2,2,0,0,0,.484-1.605c0-.013,0-.025-.006-.037l-2.8-16.515.514-.774.134.1a1.959,1.959,0,0,0,2.887-.722h0l2.844-5.7,6.5,2.516a6.227,6.227,0,0,1,3.608,5.646v5.422a1.251,1.251,0,0,0,2.5,0V73.89a8.725,8.725,0,0,0-5.163-7.963l-.024-.01L69.163,61.633V59.354a9.136,9.136,0,0,0,3.3-5.674,4.366,4.366,0,0,0,2.324-1.023,4.308,4.308,0,0,0,.525-5.99V43.291a11.973,11.973,0,0,0-19.759-9.1,4.3,4.3,0,0,0-.968-2.6V28.206a11.982,11.982,0,1,0-23.965,0V31.67a4.081,4.081,0,0,0-.968,2.5A11.929,11.929,0,0,0,24.937,31.7a1.251,1.251,0,0,0-.637,2.42,9.483,9.483,0,0,1,7.059,9.167v1.871c-.054-.011-.228-.041-.234-.042a1.441,1.441,0,0,0-.3-.846c-.32-.46-.9-1.034-2.746-3.022a1.978,1.978,0,0,0-2.535-.309,17.879,17.879,0,0,1-10.591,2.915,2,2,0,0,0-2.2,1.281c-.028,0-.337.067-.354.071V43.29a9.541,9.541,0,0,1,6.741-9.077,1.251,1.251,0,1,0-.722-2.4,12.078,12.078,0,0,0-6.109,4.262A11.874,11.874,0,0,0,9.9,43.291v3.464a4.077,4.077,0,0,0-.971,2.637,4.32,4.32,0,0,0,3.827,4.289A9.242,9.242,0,0,0,16.238,59.5v2.132L5.187,65.918l-.024.009A8.723,8.723,0,0,0,0,73.889V93.511a2.716,2.716,0,0,0,2.713,2.713H41.244a2.7,2.7,0,0,0,1.462-.431,2.7,2.7,0,0,0,1.462.431H82.7a2.716,2.716,0,0,0,2.713-2.713v-8.36A1.251,1.251,0,0,0,84.162,83.9ZM12.629,51.1a1.806,1.806,0,0,1-1.2-1.7,1.848,1.848,0,0,1,1.2-1.628ZM70.462,64.819l-2.456,4.922L65.24,67.777l3.071-3.79Zm-7.031,1.214-3.236-3.994v-1.2a10.09,10.09,0,0,0,3.251.532h0a9.25,9.25,0,0,0,3.213-.584v1.26ZM64.9,70.605l-.46.693H62.423l-.46-.693,1.469-1.043ZM42.7,50.949l-3.236-3.994v-1.2a10.09,10.09,0,0,0,3.251.532h0a9.248,9.248,0,0,0,3.213-.584v1.26Zm1.469,4.572-.46.693H41.695l-.46-.693L42.7,54.478ZM32.85,38.476a4.474,4.474,0,0,0,.628.12,9.242,9.242,0,0,0,3.487,5.821v2.132l-2.553.989a4.288,4.288,0,0,0-.553-.872V43.291A11.953,11.953,0,0,0,32.85,38.476Zm16.5-1.325a6.747,6.747,0,0,1-13.493,0V31.291a20.489,20.489,0,0,0,11.411-3.1c1.128,1.21,1.8,1.913,2.082,2.239C49.352,33.543,49.352,34.746,49.352,37.152ZM51.739,38.6a4.5,4.5,0,0,0,.625-.12,11.91,11.91,0,0,0-1.014,4.815v3.464a4.269,4.269,0,0,0-.495.731l-2.42-.937V44.27A9.138,9.138,0,0,0,51.739,38.6ZM37.819,48.9,40.891,52.7,38.8,54.183l0,0-.665.472-2.456-4.922Zm7.764,2.466,2-2.468,2.152.833-2.456,4.922-.666-.473,0,0-2.1-1.491Zm.631,5.6.134.1a1.959,1.959,0,0,0,2.887-.722h0l2.112-4.232A4.392,4.392,0,0,0,54.2,53.684,9.1,9.1,0,0,0,57.693,59.5v2.132L47.055,65.757,45.7,57.745Zm12.333,7.018,3.072,3.791-2.763,1.963L56.4,64.82ZM70.079,52.236a6.747,6.747,0,0,1-13.493,0V46.375A20.5,20.5,0,0,0,68,43.274c1.128,1.21,1.8,1.913,2.082,2.239C70.079,48.628,70.079,49.831,70.079,52.236Zm3.705-2.844a1.806,1.806,0,0,1-1.2,1.7v-3.4A1.8,1.8,0,0,1,73.784,49.392Zm-19.931-6.1a9.48,9.48,0,1,1,18.96,0v1.871c-.057-.012-.213-.039-.234-.042a1.442,1.442,0,0,0-.3-.846c-.329-.472-.9-1.036-2.746-3.022A1.979,1.979,0,0,0,67,40.943a17.912,17.912,0,0,1-10.684,2.911,1.968,1.968,0,0,0-2.107,1.286c-.028,0-.337.067-.354.071V43.29Zm.231,4.473v3.33a1.8,1.8,0,0,1-1.2-1.7A1.847,1.847,0,0,1,54.084,47.764ZM53.057,34.308a1.8,1.8,0,0,1-.626,1.367,1.851,1.851,0,0,1-.577.336v-3.4A1.8,1.8,0,0,1,53.057,34.308ZM42.605,18.726a9.491,9.491,0,0,1,9.48,9.48v1.871c-.057-.012-.213-.039-.234-.042a1.516,1.516,0,0,0-.354-.924c-.335-.453-.953-1.077-2.69-2.945a1.978,1.978,0,0,0-2.535-.309,17.872,17.872,0,0,1-10.785,2.906,1.988,1.988,0,0,0-2.006,1.291c-.028,0-.337.067-.354.071V28.206h0A9.491,9.491,0,0,1,42.605,18.726ZM33.356,32.679v3.332a1.806,1.806,0,0,1-1.2-1.7A1.848,1.848,0,0,1,33.356,32.679ZM31.127,47.692a1.807,1.807,0,0,1,0,3.4Zm-.116,5.992a4.388,4.388,0,0,0,2.974-1.726l2.188,4.386h0a1.958,1.958,0,0,0,2.886.722l.134-.1.514.774-1.356,8.01L27.708,61.633V59.355h0A9.146,9.146,0,0,0,31.011,53.684Zm-9.035,12.35L18.74,62.039v-1.2a10.086,10.086,0,0,0,3.252.532h0a9.246,9.246,0,0,0,3.213-.584v1.26Zm1.469,4.571-.46.693H20.967l-.46-.693,1.469-1.043Zm3.41-6.619,2.152.833-2.456,4.922-.666-.473,0,0-2.1-1.49ZM15.131,52.236V46.375a20.507,20.507,0,0,0,11.411-3.1c1.118,1.2,1.8,1.912,2.082,2.239v6.723a6.747,6.747,0,0,1-13.493,0Zm1.96,11.752,3.072,3.791-2.095,1.488,0,0-.665.472L14.945,64.82ZM9.97,93.722V75.442a1.251,1.251,0,1,0-2.5,0v18.28H2.713a.211.211,0,0,1-.211-.211V73.889a6.228,6.228,0,0,1,3.605-5.645L12.6,65.727l2.844,5.7h0a1.959,1.959,0,0,0,2.887.722l.134-.1.514.774-2.8,16.515c0,.012,0,.025-.006.037a2,2,0,0,0,.485,1.606l2.486,2.735H9.97ZM18.7,89.5l2.657-15.7H22.6l2.657,15.7-3.28,3.608Zm22.759,4.009a.211.211,0,0,1-.211.211H36.491V75.442a1.251,1.251,0,0,0-2.5,0v18.28H24.8l2.486-2.735a2,2,0,0,0,.484-1.605c0-.013,0-.025-.006-.037l-2.8-16.515.514-.774.134.1a1.958,1.958,0,0,0,2.887-.722h0l2.844-5.7,6.5,2.516a6.214,6.214,0,0,1,3.608,5.646V93.511Zm1.251-24.168a8.909,8.909,0,0,0-2.04-2.267l1.415-8.359h1.244l1.415,8.364A8.915,8.915,0,0,0,42.707,69.343Zm8.718,24.379h0V75.442a1.251,1.251,0,1,0-2.5,0v18.28H44.169a.211.211,0,0,1-.211-.211V73.889a5.98,5.98,0,0,1,1.46-4.008,6.735,6.735,0,0,1,2.145-1.637l6.493-2.517,2.844,5.7h0a1.958,1.958,0,0,0,2.886.722l.134-.1.514.774-2.8,16.515c0,.012,0,.025-.006.037a2,2,0,0,0,.485,1.606l2.486,2.735h-9.18Zm8.726-4.22,2.657-15.7h1.244l2.657,15.7-3.28,3.608Z" transform="translate(0 -16.224)" fill="#fe6500"/>
    </g>
  </g>
</svg>
